<mxfile host="app.diagrams.net" modified="2021-04-18T07:21:19.564Z" agent="5.0 (Windows NT 10.0; Win64; x64) AppleWebKit/537.36 (KHTML, like Gecko) Chrome/89.0.4389.128 Safari/537.36" etag="y8GFjXoGwLw5Bxaql9YM" version="14.6.1" type="github">
  <diagram id="4xAUxkLvgNEywPqndZHX" name="Page-1">
    <mxGraphModel dx="1564" dy="1774" grid="1" gridSize="10" guides="1" tooltips="1" connect="1" arrows="1" fold="1" page="1" pageScale="1" pageWidth="1600" pageHeight="900" math="0" shadow="0">
      <root>
        <mxCell id="0" />
        <mxCell id="1" parent="0" />
        <mxCell id="Rnn8pHpTWwU5sX5DeiOx-1" value="&lt;b style=&quot;font-size: 38px&quot;&gt;DAIRY&lt;/b&gt;" style="rounded=1;whiteSpace=wrap;html=1;" vertex="1" parent="1">
          <mxGeometry x="120" y="210" width="380" height="210" as="geometry" />
        </mxCell>
        <mxCell id="Rnn8pHpTWwU5sX5DeiOx-2" value="&#xa;&#xa;&lt;b style=&quot;color: rgb(0, 0, 0); font-family: helvetica; font-style: normal; letter-spacing: normal; text-align: center; text-indent: 0px; text-transform: none; word-spacing: 0px; background-color: rgb(248, 249, 250); font-size: 38px;&quot;&gt;DAIRY&lt;/b&gt;&#xa;&#xa;" style="rounded=1;whiteSpace=wrap;html=1;" vertex="1" parent="1">
          <mxGeometry x="630" y="210" width="380" height="210" as="geometry" />
        </mxCell>
        <mxCell id="Rnn8pHpTWwU5sX5DeiOx-3" value="&#xa;&#xa;&lt;b style=&quot;color: rgb(0, 0, 0); font-family: helvetica; font-style: normal; letter-spacing: normal; text-align: center; text-indent: 0px; text-transform: none; word-spacing: 0px; background-color: rgb(248, 249, 250); font-size: 38px;&quot;&gt;DAIRY&lt;/b&gt;&#xa;&#xa;" style="rounded=1;whiteSpace=wrap;html=1;" vertex="1" parent="1">
          <mxGeometry x="1140" y="210" width="380" height="210" as="geometry" />
        </mxCell>
        <mxCell id="Rnn8pHpTWwU5sX5DeiOx-4" value="&#xa;&#xa;&lt;b style=&quot;color: rgb(0, 0, 0); font-family: helvetica; font-style: normal; letter-spacing: normal; text-align: center; text-indent: 0px; text-transform: none; word-spacing: 0px; background-color: rgb(248, 249, 250); font-size: 38px;&quot;&gt;DAIRY&lt;/b&gt;&#xa;&#xa;" style="rounded=1;whiteSpace=wrap;html=1;" vertex="1" parent="1">
          <mxGeometry x="1140" y="530" width="380" height="210" as="geometry" />
        </mxCell>
        <mxCell id="Rnn8pHpTWwU5sX5DeiOx-5" value="&lt;br&gt;&lt;br&gt;&lt;font face=&quot;helvetica&quot;&gt;&lt;span style=&quot;font-size: 38px&quot;&gt;&lt;b&gt;FROZEN&lt;/b&gt;&lt;/span&gt;&lt;/font&gt;&lt;br&gt;" style="rounded=1;whiteSpace=wrap;html=1;" vertex="1" parent="1">
          <mxGeometry x="630" y="520" width="380" height="210" as="geometry" />
        </mxCell>
        <mxCell id="Rnn8pHpTWwU5sX5DeiOx-6" value="&lt;br&gt;&lt;br&gt;&lt;font face=&quot;helvetica&quot;&gt;&lt;span style=&quot;font-size: 38px&quot;&gt;&lt;b&gt;PRODUCE&lt;/b&gt;&lt;/span&gt;&lt;/font&gt;&lt;br&gt;" style="rounded=1;whiteSpace=wrap;html=1;" vertex="1" parent="1">
          <mxGeometry x="120" y="520" width="380" height="210" as="geometry" />
        </mxCell>
        <mxCell id="Rnn8pHpTWwU5sX5DeiOx-8" value="" style="ellipse;whiteSpace=wrap;html=1;aspect=fixed;" vertex="1" parent="1">
          <mxGeometry x="1490" y="-50" width="180" height="180" as="geometry" />
        </mxCell>
      </root>
    </mxGraphModel>
  </diagram>
</mxfile>
